<mxfile host="Electron" modified="2024-07-07T18:47:19.780Z" agent="Mozilla/5.0 (X11; Linux x86_64) AppleWebKit/537.36 (KHTML, like Gecko) draw.io/24.6.4 Chrome/124.0.6367.207 Electron/30.0.6 Safari/537.36" etag="HJCrGdaeOZtjE-T4G_Lz" version="24.6.4" type="device">
  <diagram name="Page-1" id="2YBvvXClWsGukQMizWep">
    <mxGraphModel dx="1596" dy="824" grid="1" gridSize="10" guides="1" tooltips="1" connect="1" arrows="1" fold="1" page="1" pageScale="1" pageWidth="850" pageHeight="1100" math="0" shadow="0">
      <root>
        <mxCell id="0" />
        <mxCell id="1" parent="0" />
        <mxCell id="4sZDNM4Tc-nBKHHwk9o1-1" value="Comparador" style="shape=umlLifeline;perimeter=lifelinePerimeter;whiteSpace=wrap;html=1;container=1;dropTarget=0;collapsible=0;recursiveResize=0;outlineConnect=0;portConstraint=eastwest;newEdgeStyle={&quot;curved&quot;:0,&quot;rounded&quot;:0};" vertex="1" parent="1">
          <mxGeometry x="160" y="70" width="100" height="740" as="geometry" />
        </mxCell>
        <mxCell id="4sZDNM4Tc-nBKHHwk9o1-5" value="" style="html=1;points=[[0,0,0,0,5],[0,1,0,0,-5],[1,0,0,0,5],[1,1,0,0,-5]];perimeter=orthogonalPerimeter;outlineConnect=0;targetShapes=umlLifeline;portConstraint=eastwest;newEdgeStyle={&quot;curved&quot;:0,&quot;rounded&quot;:0};" vertex="1" parent="4sZDNM4Tc-nBKHHwk9o1-1">
          <mxGeometry x="45" y="60" width="10" height="140" as="geometry" />
        </mxCell>
        <mxCell id="4sZDNM4Tc-nBKHHwk9o1-14" value="" style="html=1;points=[[0,0,0,0,5],[0,1,0,0,-5],[1,0,0,0,5],[1,1,0,0,-5]];perimeter=orthogonalPerimeter;outlineConnect=0;targetShapes=umlLifeline;portConstraint=eastwest;newEdgeStyle={&quot;curved&quot;:0,&quot;rounded&quot;:0};" vertex="1" parent="4sZDNM4Tc-nBKHHwk9o1-1">
          <mxGeometry x="45" y="215" width="10" height="150" as="geometry" />
        </mxCell>
        <mxCell id="4sZDNM4Tc-nBKHHwk9o1-39" value="" style="html=1;points=[[0,0,0,0,5],[0,1,0,0,-5],[1,0,0,0,5],[1,1,0,0,-5]];perimeter=orthogonalPerimeter;outlineConnect=0;targetShapes=umlLifeline;portConstraint=eastwest;newEdgeStyle={&quot;curved&quot;:0,&quot;rounded&quot;:0};" vertex="1" parent="4sZDNM4Tc-nBKHHwk9o1-1">
          <mxGeometry x="45" y="410" width="10" height="320" as="geometry" />
        </mxCell>
        <mxCell id="4sZDNM4Tc-nBKHHwk9o1-2" value="" style="shape=umlLifeline;perimeter=lifelinePerimeter;whiteSpace=wrap;html=1;container=1;dropTarget=0;collapsible=0;recursiveResize=0;outlineConnect=0;portConstraint=eastwest;newEdgeStyle={&quot;curved&quot;:0,&quot;rounded&quot;:0};participant=umlActor;" vertex="1" parent="1">
          <mxGeometry x="50" y="70" width="20" height="750" as="geometry" />
        </mxCell>
        <mxCell id="4sZDNM4Tc-nBKHHwk9o1-3" value="API" style="shape=umlLifeline;perimeter=lifelinePerimeter;whiteSpace=wrap;html=1;container=1;dropTarget=0;collapsible=0;recursiveResize=0;outlineConnect=0;portConstraint=eastwest;newEdgeStyle={&quot;curved&quot;:0,&quot;rounded&quot;:0};" vertex="1" parent="1">
          <mxGeometry x="330" y="70" width="100" height="740" as="geometry" />
        </mxCell>
        <mxCell id="4sZDNM4Tc-nBKHHwk9o1-8" value="" style="html=1;points=[[0,0,0,0,5],[0,1,0,0,-5],[1,0,0,0,5],[1,1,0,0,-5]];perimeter=orthogonalPerimeter;outlineConnect=0;targetShapes=umlLifeline;portConstraint=eastwest;newEdgeStyle={&quot;curved&quot;:0,&quot;rounded&quot;:0};" vertex="1" parent="4sZDNM4Tc-nBKHHwk9o1-3">
          <mxGeometry x="45" y="80" width="10" height="100" as="geometry" />
        </mxCell>
        <mxCell id="4sZDNM4Tc-nBKHHwk9o1-17" value="" style="html=1;points=[[0,0,0,0,5],[0,1,0,0,-5],[1,0,0,0,5],[1,1,0,0,-5]];perimeter=orthogonalPerimeter;outlineConnect=0;targetShapes=umlLifeline;portConstraint=eastwest;newEdgeStyle={&quot;curved&quot;:0,&quot;rounded&quot;:0};" vertex="1" parent="4sZDNM4Tc-nBKHHwk9o1-3">
          <mxGeometry x="45" y="230" width="10" height="120" as="geometry" />
        </mxCell>
        <mxCell id="4sZDNM4Tc-nBKHHwk9o1-40" value="" style="html=1;points=[[0,0,0,0,5],[0,1,0,0,-5],[1,0,0,0,5],[1,1,0,0,-5]];perimeter=orthogonalPerimeter;outlineConnect=0;targetShapes=umlLifeline;portConstraint=eastwest;newEdgeStyle={&quot;curved&quot;:0,&quot;rounded&quot;:0};" vertex="1" parent="4sZDNM4Tc-nBKHHwk9o1-3">
          <mxGeometry x="45" y="410" width="10" height="290" as="geometry" />
        </mxCell>
        <mxCell id="4sZDNM4Tc-nBKHHwk9o1-41" value="Obtener fichero modelo" style="html=1;align=left;spacingLeft=2;endArrow=block;rounded=0;edgeStyle=orthogonalEdgeStyle;curved=0;rounded=0;" edge="1" parent="4sZDNM4Tc-nBKHHwk9o1-3" source="4sZDNM4Tc-nBKHHwk9o1-40" target="4sZDNM4Tc-nBKHHwk9o1-40">
          <mxGeometry relative="1" as="geometry">
            <mxPoint x="14.998571428571324" y="510.02857142857147" as="sourcePoint" />
            <Array as="points">
              <mxPoint x="110" y="510" />
              <mxPoint x="110" y="530" />
            </Array>
            <mxPoint x="20.069999999999993" y="530.0285714285715" as="targetPoint" />
          </mxGeometry>
        </mxCell>
        <mxCell id="4sZDNM4Tc-nBKHHwk9o1-4" value="Base de datos" style="shape=umlLifeline;perimeter=lifelinePerimeter;whiteSpace=wrap;html=1;container=1;dropTarget=0;collapsible=0;recursiveResize=0;outlineConnect=0;portConstraint=eastwest;newEdgeStyle={&quot;curved&quot;:0,&quot;rounded&quot;:0};" vertex="1" parent="1">
          <mxGeometry x="480" y="70" width="100" height="730" as="geometry" />
        </mxCell>
        <mxCell id="4sZDNM4Tc-nBKHHwk9o1-11" value="" style="html=1;points=[[0,0,0,0,5],[0,1,0,0,-5],[1,0,0,0,5],[1,1,0,0,-5]];perimeter=orthogonalPerimeter;outlineConnect=0;targetShapes=umlLifeline;portConstraint=eastwest;newEdgeStyle={&quot;curved&quot;:0,&quot;rounded&quot;:0};" vertex="1" parent="4sZDNM4Tc-nBKHHwk9o1-4">
          <mxGeometry x="45" y="90" width="10" height="80" as="geometry" />
        </mxCell>
        <mxCell id="4sZDNM4Tc-nBKHHwk9o1-20" value="" style="html=1;points=[[0,0,0,0,5],[0,1,0,0,-5],[1,0,0,0,5],[1,1,0,0,-5]];perimeter=orthogonalPerimeter;outlineConnect=0;targetShapes=umlLifeline;portConstraint=eastwest;newEdgeStyle={&quot;curved&quot;:0,&quot;rounded&quot;:0};" vertex="1" parent="4sZDNM4Tc-nBKHHwk9o1-4">
          <mxGeometry x="45" y="250" width="10" height="60" as="geometry" />
        </mxCell>
        <mxCell id="4sZDNM4Tc-nBKHHwk9o1-42" value="" style="html=1;points=[[0,0,0,0,5],[0,1,0,0,-5],[1,0,0,0,5],[1,1,0,0,-5]];perimeter=orthogonalPerimeter;outlineConnect=0;targetShapes=umlLifeline;portConstraint=eastwest;newEdgeStyle={&quot;curved&quot;:0,&quot;rounded&quot;:0};" vertex="1" parent="4sZDNM4Tc-nBKHHwk9o1-4">
          <mxGeometry x="45" y="430" width="10" height="60" as="geometry" />
        </mxCell>
        <mxCell id="4sZDNM4Tc-nBKHHwk9o1-7" value="Selector de ejercicio" style="html=1;verticalAlign=bottom;endArrow=open;dashed=1;endSize=8;curved=0;rounded=0;exitX=0;exitY=1;exitDx=0;exitDy=-5;" edge="1" source="4sZDNM4Tc-nBKHHwk9o1-5" parent="1" target="4sZDNM4Tc-nBKHHwk9o1-2">
          <mxGeometry relative="1" as="geometry">
            <mxPoint x="100.07" y="255" as="targetPoint" />
          </mxGeometry>
        </mxCell>
        <mxCell id="4sZDNM4Tc-nBKHHwk9o1-6" value="Acceder a la pÃ¡gina" style="html=1;verticalAlign=bottom;endArrow=block;curved=0;rounded=0;entryX=0;entryY=0;entryDx=0;entryDy=5;" edge="1" target="4sZDNM4Tc-nBKHHwk9o1-5" parent="1" source="4sZDNM4Tc-nBKHHwk9o1-2">
          <mxGeometry relative="1" as="geometry">
            <mxPoint x="-70.00142857142868" y="185" as="sourcePoint" />
          </mxGeometry>
        </mxCell>
        <mxCell id="4sZDNM4Tc-nBKHHwk9o1-9" value="Obtener ejercicios" style="html=1;verticalAlign=bottom;endArrow=block;curved=0;rounded=0;entryX=0;entryY=0;entryDx=0;entryDy=5;" edge="1" target="4sZDNM4Tc-nBKHHwk9o1-8" parent="1" source="4sZDNM4Tc-nBKHHwk9o1-5">
          <mxGeometry relative="1" as="geometry">
            <mxPoint x="295" y="195" as="sourcePoint" />
          </mxGeometry>
        </mxCell>
        <mxCell id="4sZDNM4Tc-nBKHHwk9o1-10" value="Ejercicios" style="html=1;verticalAlign=bottom;endArrow=open;dashed=1;endSize=8;curved=0;rounded=0;exitX=0;exitY=1;exitDx=0;exitDy=-5;" edge="1" source="4sZDNM4Tc-nBKHHwk9o1-8" parent="1" target="4sZDNM4Tc-nBKHHwk9o1-1">
          <mxGeometry relative="1" as="geometry">
            <mxPoint x="295" y="265" as="targetPoint" />
          </mxGeometry>
        </mxCell>
        <mxCell id="4sZDNM4Tc-nBKHHwk9o1-12" value="Obtener ejercicios" style="html=1;verticalAlign=bottom;endArrow=block;curved=0;rounded=0;entryX=0;entryY=0;entryDx=0;entryDy=5;" edge="1" parent="1" target="4sZDNM4Tc-nBKHHwk9o1-11" source="4sZDNM4Tc-nBKHHwk9o1-8">
          <mxGeometry relative="1" as="geometry">
            <mxPoint x="405" y="165" as="sourcePoint" />
          </mxGeometry>
        </mxCell>
        <mxCell id="4sZDNM4Tc-nBKHHwk9o1-13" value="Ejercicios" style="html=1;verticalAlign=bottom;endArrow=open;dashed=1;endSize=8;curved=0;rounded=0;exitX=0;exitY=1;exitDx=0;exitDy=-5;" edge="1" parent="1" source="4sZDNM4Tc-nBKHHwk9o1-11" target="4sZDNM4Tc-nBKHHwk9o1-8">
          <mxGeometry relative="1" as="geometry">
            <mxPoint x="400" y="235" as="targetPoint" />
          </mxGeometry>
        </mxCell>
        <mxCell id="4sZDNM4Tc-nBKHHwk9o1-15" value="Seleccionar ejercicio" style="html=1;verticalAlign=bottom;endArrow=block;curved=0;rounded=0;entryX=0;entryY=0;entryDx=0;entryDy=5;" edge="1" target="4sZDNM4Tc-nBKHHwk9o1-14" parent="1" source="4sZDNM4Tc-nBKHHwk9o1-2">
          <mxGeometry relative="1" as="geometry">
            <mxPoint x="90" y="345" as="sourcePoint" />
          </mxGeometry>
        </mxCell>
        <mxCell id="4sZDNM4Tc-nBKHHwk9o1-18" value="Seleccionar ejercicio" style="html=1;verticalAlign=bottom;endArrow=block;curved=0;rounded=0;entryX=0;entryY=0;entryDx=0;entryDy=5;" edge="1" target="4sZDNM4Tc-nBKHHwk9o1-17" parent="1" source="4sZDNM4Tc-nBKHHwk9o1-14">
          <mxGeometry relative="1" as="geometry">
            <mxPoint x="210" y="345" as="sourcePoint" />
          </mxGeometry>
        </mxCell>
        <mxCell id="4sZDNM4Tc-nBKHHwk9o1-19" value="Ejercicio con video" style="html=1;verticalAlign=bottom;endArrow=open;dashed=1;endSize=8;curved=0;rounded=0;exitX=0;exitY=1;exitDx=0;exitDy=-5;" edge="1" source="4sZDNM4Tc-nBKHHwk9o1-17" parent="1" target="4sZDNM4Tc-nBKHHwk9o1-14">
          <mxGeometry relative="1" as="geometry">
            <mxPoint x="305" y="415" as="targetPoint" />
          </mxGeometry>
        </mxCell>
        <mxCell id="4sZDNM4Tc-nBKHHwk9o1-16" value="Vista de comparar ejercicio" style="html=1;verticalAlign=bottom;endArrow=open;dashed=1;endSize=8;curved=0;rounded=0;exitX=0;exitY=1;exitDx=0;exitDy=-5;" edge="1" source="4sZDNM4Tc-nBKHHwk9o1-14" parent="1" target="4sZDNM4Tc-nBKHHwk9o1-2">
          <mxGeometry relative="1" as="geometry">
            <mxPoint x="90" y="415" as="targetPoint" />
          </mxGeometry>
        </mxCell>
        <mxCell id="4sZDNM4Tc-nBKHHwk9o1-21" value="Seleccionar ejercicio" style="html=1;verticalAlign=bottom;endArrow=block;curved=0;rounded=0;entryX=0;entryY=0;entryDx=0;entryDy=5;" edge="1" parent="1" target="4sZDNM4Tc-nBKHHwk9o1-20" source="4sZDNM4Tc-nBKHHwk9o1-17">
          <mxGeometry relative="1" as="geometry">
            <mxPoint x="375" y="325" as="sourcePoint" />
          </mxGeometry>
        </mxCell>
        <mxCell id="4sZDNM4Tc-nBKHHwk9o1-22" value="Ejercicio con ruta de video" style="html=1;verticalAlign=bottom;endArrow=open;dashed=1;endSize=8;curved=0;rounded=0;exitX=0;exitY=1;exitDx=0;exitDy=-5;" edge="1" parent="1" source="4sZDNM4Tc-nBKHHwk9o1-20" target="4sZDNM4Tc-nBKHHwk9o1-17">
          <mxGeometry relative="1" as="geometry">
            <mxPoint x="375" y="395" as="targetPoint" />
          </mxGeometry>
        </mxCell>
        <mxCell id="4sZDNM4Tc-nBKHHwk9o1-25" value="DTW calculator" style="shape=umlLifeline;perimeter=lifelinePerimeter;whiteSpace=wrap;html=1;container=1;dropTarget=0;collapsible=0;recursiveResize=0;outlineConnect=0;portConstraint=eastwest;newEdgeStyle={&quot;curved&quot;:0,&quot;rounded&quot;:0};" vertex="1" parent="1">
          <mxGeometry x="630" y="70" width="100" height="720" as="geometry" />
        </mxCell>
        <mxCell id="4sZDNM4Tc-nBKHHwk9o1-27" value="" style="html=1;points=[[0,0,0,0,5],[0,1,0,0,-5],[1,0,0,0,5],[1,1,0,0,-5]];perimeter=orthogonalPerimeter;outlineConnect=0;targetShapes=umlLifeline;portConstraint=eastwest;newEdgeStyle={&quot;curved&quot;:0,&quot;rounded&quot;:0};" vertex="1" parent="4sZDNM4Tc-nBKHHwk9o1-25">
          <mxGeometry x="45" y="560" width="10" height="60" as="geometry" />
        </mxCell>
        <mxCell id="4sZDNM4Tc-nBKHHwk9o1-24" value="Obtener video" style="html=1;align=left;spacingLeft=2;endArrow=block;rounded=0;edgeStyle=orthogonalEdgeStyle;curved=0;rounded=0;" edge="1" parent="1">
          <mxGeometry relative="1" as="geometry">
            <mxPoint x="385" y="389.9985714285715" as="sourcePoint" />
            <Array as="points">
              <mxPoint x="480" y="389.97" />
              <mxPoint x="480" y="409.97" />
            </Array>
            <mxPoint x="385" y="409.9985714285715" as="targetPoint" />
          </mxGeometry>
        </mxCell>
        <mxCell id="4sZDNM4Tc-nBKHHwk9o1-46" value="Resultado" style="html=1;verticalAlign=bottom;endArrow=open;dashed=1;endSize=8;curved=0;rounded=0;exitX=0;exitY=1;exitDx=0;exitDy=-5;" edge="1" parent="1" source="4sZDNM4Tc-nBKHHwk9o1-39" target="4sZDNM4Tc-nBKHHwk9o1-2">
          <mxGeometry relative="1" as="geometry">
            <mxPoint x="60" y="625" as="targetPoint" />
          </mxGeometry>
        </mxCell>
        <mxCell id="4sZDNM4Tc-nBKHHwk9o1-49" value="Comparar ejercicios" style="html=1;verticalAlign=bottom;endArrow=block;curved=0;rounded=0;" edge="1" parent="1" source="4sZDNM4Tc-nBKHHwk9o1-40" target="4sZDNM4Tc-nBKHHwk9o1-27">
          <mxGeometry relative="1" as="geometry">
            <mxPoint x="395" y="515" as="sourcePoint" />
            <mxPoint x="575" y="515" as="targetPoint" />
          </mxGeometry>
        </mxCell>
        <mxCell id="4sZDNM4Tc-nBKHHwk9o1-50" value="Normalizar y comparar" style="html=1;align=left;spacingLeft=2;endArrow=block;rounded=0;edgeStyle=orthogonalEdgeStyle;curved=0;rounded=0;" edge="1" parent="1">
          <mxGeometry x="-1" y="36" relative="1" as="geometry">
            <mxPoint x="680" y="650" as="sourcePoint" />
            <Array as="points">
              <mxPoint x="710" y="650" />
              <mxPoint x="710" y="670" />
            </Array>
            <mxPoint x="680" y="670" as="targetPoint" />
            <mxPoint x="-20" y="6" as="offset" />
          </mxGeometry>
        </mxCell>
        <mxCell id="4sZDNM4Tc-nBKHHwk9o1-44" value="Subir fichero" style="html=1;verticalAlign=bottom;endArrow=block;curved=0;rounded=0;entryX=0;entryY=0;entryDx=0;entryDy=5;" edge="1" parent="1" source="4sZDNM4Tc-nBKHHwk9o1-39" target="4sZDNM4Tc-nBKHHwk9o1-40">
          <mxGeometry relative="1" as="geometry">
            <mxPoint x="170" y="515" as="sourcePoint" />
          </mxGeometry>
        </mxCell>
        <mxCell id="4sZDNM4Tc-nBKHHwk9o1-45" value="Resultado" style="html=1;verticalAlign=bottom;endArrow=open;dashed=1;endSize=8;curved=0;rounded=0;exitX=0;exitY=1;exitDx=0;exitDy=-5;" edge="1" parent="1" source="4sZDNM4Tc-nBKHHwk9o1-40" target="4sZDNM4Tc-nBKHHwk9o1-39">
          <mxGeometry relative="1" as="geometry">
            <mxPoint x="265" y="585" as="targetPoint" />
          </mxGeometry>
        </mxCell>
        <mxCell id="4sZDNM4Tc-nBKHHwk9o1-47" value="Obtener ruta de ej modelo" style="html=1;verticalAlign=bottom;endArrow=block;curved=0;rounded=0;entryX=0;entryY=0;entryDx=0;entryDy=5;" edge="1" parent="1" source="4sZDNM4Tc-nBKHHwk9o1-40" target="4sZDNM4Tc-nBKHHwk9o1-42">
          <mxGeometry relative="1" as="geometry">
            <mxPoint x="335" y="495" as="sourcePoint" />
          </mxGeometry>
        </mxCell>
        <mxCell id="4sZDNM4Tc-nBKHHwk9o1-48" value="Comparar video modelo" style="html=1;verticalAlign=bottom;endArrow=open;dashed=1;endSize=8;curved=0;rounded=0;exitX=0;exitY=1;exitDx=0;exitDy=-5;" edge="1" parent="1" source="4sZDNM4Tc-nBKHHwk9o1-42" target="4sZDNM4Tc-nBKHHwk9o1-40">
          <mxGeometry relative="1" as="geometry">
            <mxPoint x="335" y="565" as="targetPoint" />
          </mxGeometry>
        </mxCell>
        <mxCell id="4sZDNM4Tc-nBKHHwk9o1-43" value="Subir fichero" style="html=1;verticalAlign=bottom;endArrow=block;curved=0;rounded=0;entryX=0;entryY=0;entryDx=0;entryDy=5;" edge="1" parent="1" target="4sZDNM4Tc-nBKHHwk9o1-39" source="4sZDNM4Tc-nBKHHwk9o1-2">
          <mxGeometry relative="1" as="geometry">
            <mxPoint x="20" y="485" as="sourcePoint" />
          </mxGeometry>
        </mxCell>
        <mxCell id="4sZDNM4Tc-nBKHHwk9o1-51" value="Resultado" style="html=1;verticalAlign=bottom;endArrow=open;dashed=1;endSize=8;curved=0;rounded=0;" edge="1" parent="1">
          <mxGeometry relative="1" as="geometry">
            <mxPoint x="385" y="690" as="targetPoint" />
            <mxPoint x="675" y="690" as="sourcePoint" />
          </mxGeometry>
        </mxCell>
      </root>
    </mxGraphModel>
  </diagram>
</mxfile>
